<svg 
 xmlns="http://www.w3.org/2000/svg"
 xmlns:xlink="http://www.w3.org/1999/xlink"
 width="60px" height="61px">
<path fill-rule="evenodd"  fill="rgb(0, 166, 81)"
 d="M30.021,60.121 C13.633,60.224 0.038,46.615 0.121,30.089 C0.205,13.316 13.283,0.025 29.892,0.009 C46.338,-0.007 59.809,13.507 59.636,30.149 C59.459,47.096 46.320,60.019 30.021,60.121 ZM30.001,2.181 C15.056,2.076 2.563,14.574 2.254,29.442 C1.940,44.591 14.494,58.149 29.861,57.840 C44.948,57.904 57.278,45.561 57.388,30.283 C57.499,14.852 45.256,2.289 30.001,2.181 ZM43.176,48.131 C42.307,47.753 41.205,47.508 40.303,47.689 C35.457,48.661 30.942,46.263 29.190,41.500 C28.722,40.228 28.114,39.471 26.769,39.030 C23.886,38.086 21.839,36.112 20.965,33.110 C20.595,31.841 19.853,31.227 18.639,30.774 C13.645,28.909 11.414,24.561 12.494,19.324 C12.661,18.516 12.469,17.449 12.050,16.738 C11.115,15.148 11.498,13.934 12.665,12.770 C13.793,11.644 14.947,11.067 16.572,12.002 C17.329,12.438 18.453,12.655 19.286,12.452 C24.495,11.185 29.333,14.532 30.639,18.757 C30.915,19.650 31.929,20.602 32.823,20.952 C35.751,22.099 37.815,24.035 38.772,27.014 C39.188,28.310 39.867,28.901 41.099,29.319 C45.105,30.677 47.433,34.087 47.528,38.355 C47.395,39.167 47.144,39.982 47.163,40.791 C47.183,41.671 47.275,42.637 47.655,43.404 C48.350,44.807 48.314,45.963 47.222,47.107 C45.844,48.549 44.638,48.768 43.176,48.131 ZM45.405,45.087 C45.261,43.582 44.733,41.990 45.046,40.590 C46.010,36.287 44.083,32.566 39.920,31.318 C38.358,30.849 37.269,29.891 36.839,28.243 C36.139,25.555 34.394,23.861 31.815,23.054 C30.100,22.517 29.084,21.419 28.525,19.701 C27.237,15.742 23.870,13.733 19.888,14.637 C18.318,14.993 16.932,15.099 15.541,14.146 C15.291,13.974 14.625,14.105 14.374,14.341 C14.116,14.582 13.907,15.289 14.063,15.504 C15.155,17.004 14.986,18.539 14.604,20.234 C13.764,23.966 15.735,27.417 19.346,28.595 C21.301,29.233 22.486,30.385 23.055,32.423 C23.680,34.662 25.246,36.277 27.446,36.904 C29.477,37.483 30.596,38.654 31.256,40.626 C32.510,44.371 35.955,46.333 39.729,45.464 C41.544,45.046 43.194,45.012 44.733,46.408 C45.240,45.996 45.684,45.636 46.128,45.275 C45.887,45.212 45.646,45.150 45.405,45.087 ZM37.984,43.438 C35.104,43.433 32.953,41.223 32.951,38.268 C32.950,35.272 35.057,33.141 38.012,33.148 C40.860,33.155 43.169,35.463 43.159,38.293 C43.149,41.085 40.778,43.443 37.984,43.438 ZM38.085,35.272 C36.664,35.218 35.117,36.691 35.060,38.151 C35.003,39.625 36.397,41.162 37.867,41.245 C39.385,41.331 40.774,39.983 40.823,38.377 C40.873,36.763 39.609,35.331 38.085,35.272 ZM29.860,35.220 C26.992,35.229 24.768,32.943 24.786,30.006 C24.804,27.054 26.982,24.900 29.929,24.919 C32.813,24.938 35.035,27.248 34.969,30.160 C34.906,32.943 32.615,35.211 29.860,35.220 ZM29.771,27.081 C28.280,27.129 26.924,28.596 26.958,30.123 C26.991,31.629 28.465,33.070 29.923,33.024 C31.379,32.977 32.744,31.476 32.709,29.960 C32.672,28.370 31.305,27.030 29.771,27.081 ZM21.786,27.063 C18.902,27.050 16.718,24.789 16.738,21.839 C16.756,19.080 19.049,16.767 21.775,16.758 C24.605,16.749 26.923,19.063 26.948,21.923 C26.974,24.767 24.655,27.076 21.786,27.063 ZM21.839,18.979 C20.381,18.947 18.913,20.418 18.899,21.926 C18.884,23.464 20.277,24.896 21.800,24.906 C23.332,24.917 24.703,23.541 24.729,21.965 C24.754,20.427 23.386,19.013 21.839,18.979 Z"/>
</svg>