<svg 
 xmlns="http://www.w3.org/2000/svg"
 xmlns:xlink="http://www.w3.org/1999/xlink"
 width="60px" height="61px">
<path fill-rule="evenodd"  fill="rgb(171, 160, 0)"
 d="M30.640,60.580 C13.153,60.879 -0.125,46.975 -0.002,30.318 C0.120,13.948 13.394,0.647 29.791,0.656 C46.272,0.664 59.416,14.048 59.399,30.815 C59.383,47.016 46.523,60.308 30.640,60.580 ZM29.824,2.826 C14.775,2.743 2.259,15.227 2.162,30.418 C2.296,45.546 13.692,58.534 29.657,58.457 C45.253,58.381 56.960,46.153 57.236,30.986 C57.516,15.554 45.077,2.909 29.824,2.826 ZM38.205,49.587 C34.170,53.003 29.524,53.300 24.836,51.716 C20.186,50.145 17.833,46.451 17.316,41.557 C17.273,41.147 17.236,40.734 17.165,40.328 C16.818,38.363 17.417,37.641 19.434,37.612 C19.718,37.608 20.002,37.611 20.111,37.611 C19.614,35.446 18.944,33.362 18.696,31.229 C18.413,28.795 18.979,28.364 21.155,28.397 C20.783,26.165 20.211,23.905 20.074,21.620 C19.905,18.793 20.914,18.192 23.646,19.124 C24.140,19.292 24.625,19.488 25.334,19.754 C24.283,15.875 25.494,12.733 28.003,9.982 C29.442,8.404 30.274,8.422 31.695,10.071 C34.062,12.820 35.125,15.914 34.037,19.657 C35.217,19.329 36.230,18.960 37.275,18.777 C38.561,18.553 39.422,19.229 39.327,20.526 C39.136,23.118 38.753,25.695 38.443,28.327 C38.834,28.486 40.109,28.607 40.425,29.227 C40.879,30.117 40.731,31.378 40.654,32.468 C40.593,33.335 40.295,34.195 40.026,35.034 C39.760,35.865 39.398,36.665 39.022,37.618 C39.706,37.618 40.441,37.393 40.811,37.668 C41.471,38.159 42.397,38.980 42.363,39.616 C42.158,43.401 41.280,46.984 38.205,49.587 ZM31.195,42.236 C30.148,42.236 29.341,42.236 28.218,42.236 C28.784,43.172 29.216,43.887 29.737,44.749 C30.265,43.839 30.689,43.108 31.195,42.236 ZM19.460,40.115 C18.954,45.564 24.189,50.771 28.335,49.945 C28.814,44.203 24.069,39.755 19.460,40.115 ZM20.976,31.082 C21.346,36.319 24.303,39.773 28.346,39.689 C29.119,36.260 25.613,30.575 20.976,31.082 ZM22.342,21.362 C21.433,25.842 25.453,30.229 28.344,30.175 C29.003,25.665 26.253,21.626 22.342,21.362 ZM29.695,11.653 C26.354,14.864 26.340,19.460 29.662,22.019 C33.323,19.118 32.828,13.648 29.695,11.653 ZM37.117,21.293 C32.993,21.932 30.542,25.561 31.034,30.152 C34.713,29.926 37.607,25.778 37.117,21.293 ZM31.110,39.729 C34.270,39.958 38.723,36.272 38.437,30.913 C34.298,30.912 30.392,35.425 31.110,39.729 ZM39.907,40.137 C34.985,39.974 30.774,44.877 30.974,49.914 C35.556,50.763 40.569,45.193 39.907,40.137 Z"/>
</svg>