<svg 
 xmlns="http://www.w3.org/2000/svg"
 xmlns:xlink="http://www.w3.org/1999/xlink"
 width="60px" height="61px">
<path fill-rule="evenodd"  fill="rgb(147, 147, 147)"
 d="M30.194,60.782 C14.020,61.090 0.176,47.269 0.377,30.585 C0.576,14.100 13.731,0.626 30.059,0.727 C46.844,0.831 59.808,13.960 59.878,30.961 C59.947,47.683 46.104,60.974 30.194,60.782 ZM30.201,2.962 C14.991,3.096 2.576,15.344 2.543,30.582 C2.509,45.991 14.841,58.591 29.998,58.631 C45.180,58.671 57.586,46.145 57.766,30.847 C57.940,16.120 45.325,2.828 30.201,2.962 ZM42.970,43.522 C42.263,48.779 38.937,52.403 33.928,53.468 C25.258,55.313 17.457,49.630 17.028,40.600 C16.784,35.458 16.982,30.295 16.981,25.141 C16.981,22.416 16.982,22.418 19.650,22.343 C19.989,22.334 20.327,22.286 20.857,22.240 C20.857,20.583 20.849,19.000 20.859,17.418 C20.891,12.100 24.813,8.219 30.164,8.200 C35.503,8.182 39.495,12.055 39.533,17.328 C39.558,20.930 39.537,24.532 39.537,28.251 C43.346,28.463 43.385,28.463 43.335,32.199 C43.285,35.978 43.470,39.799 42.970,43.522 ZM19.151,28.168 C19.151,28.465 19.146,28.761 19.152,29.057 C19.236,33.376 18.998,37.732 19.485,42.004 C20.164,47.953 25.917,52.200 31.691,51.324 C31.691,45.952 31.922,40.674 31.626,35.427 C31.332,30.221 27.957,26.274 23.436,25.016 C19.413,23.897 19.149,24.091 19.151,28.168 ZM32.327,10.720 C27.799,9.558 23.418,12.287 23.042,16.802 C22.885,18.680 23.016,20.583 23.016,22.490 C23.381,22.634 23.644,22.746 23.914,22.841 C30.660,25.235 33.841,29.777 33.843,37.026 C33.844,40.217 33.843,43.409 33.843,46.908 C36.275,45.404 37.348,43.451 37.362,40.994 C37.408,33.111 37.403,25.227 37.369,17.344 C37.357,14.587 35.669,11.577 32.327,10.720 ZM40.310,30.336 C40.050,30.817 39.578,31.292 39.566,31.779 C39.493,34.734 39.496,37.692 39.531,40.648 C39.574,44.355 37.995,47.079 34.876,49.002 C34.317,49.347 34.021,50.125 33.603,50.702 C33.767,50.825 33.930,50.948 34.093,51.071 C37.361,49.987 39.929,47.783 40.446,44.417 C41.138,39.915 40.998,35.283 41.215,30.707 C40.914,30.583 40.612,30.459 40.310,30.336 ZM31.610,15.642 C32.171,15.266 32.723,14.613 33.294,14.595 C33.816,14.578 34.359,15.251 34.893,15.620 C34.386,16.045 33.880,16.469 33.129,17.099 C32.475,16.471 32.042,16.057 31.610,15.642 ZM34.890,20.271 C34.478,20.686 34.066,21.101 33.470,21.701 C32.644,21.090 32.105,20.692 31.567,20.294 C32.191,19.908 32.789,19.292 33.447,19.217 C33.883,19.167 34.406,19.893 34.890,20.271 ZM34.891,24.819 C34.388,25.187 33.871,25.867 33.386,25.844 C32.786,25.815 32.215,25.202 31.631,24.841 C32.134,24.390 32.638,23.939 33.403,23.253 C34.050,23.934 34.471,24.376 34.891,24.819 ZM25.512,21.289 C26.150,20.933 26.772,20.348 27.432,20.300 C27.897,20.266 28.414,20.960 28.909,21.329 C28.412,21.805 27.916,22.282 27.145,23.022 C26.400,22.231 25.956,21.760 25.512,21.289 ZM25.497,16.724 C25.986,16.263 26.475,15.801 27.202,15.114 C27.927,15.779 28.415,16.226 28.903,16.673 C28.379,17.094 27.839,17.870 27.336,17.846 C26.707,17.817 26.109,17.128 25.497,16.724 Z"/>
</svg>