<?xml version="1.0" encoding="UTF-8"?>
<svg id="seed-ico" data-name="seed" xmlns="http://www.w3.org/2000/svg" viewBox="0 0 29.59 52.18" fill="#333">
  <path d="m29.59,35.66c0,1.94-.5,5.6-2.19,9.01-2.24,4.53-5.87,7.05-10.93,7.44-3.2.25-6.31-.06-9.14-1.78-3.81-2.33-5.66-5.95-6.6-10.14-1.53-6.77-.47-13.35,1.52-19.84C4.52,12.94,8.34,6.41,13.62.74c.95-1.02,1.49-.99,2.57.14,4.3,4.51,7.5,9.72,9.82,15.48,2.26,5.6,3.59,11.41,3.58,19.3Zm-28.26-2.16c.05,1.19.04,2.27.17,3.34.16,1.26.38,2.53.69,3.77,1.47,5.83,5.05,9.78,11.26,10.23,3.8.27,7.35-.37,10.2-3.16,2.89-2.83,3.98-6.47,4.43-10.36.62-5.4-.13-10.67-1.69-15.84-2.08-6.89-5.31-13.16-10.12-18.55-1.2-1.35-1.66-1.29-2.86,0-2.74,2.95-4.9,6.27-6.7,9.87-3.27,6.56-5.17,13.46-5.38,20.7Z"/>
  <path d="m2.69,33.54c.39-9.94,3.61-18.93,9.54-26.95.47-.64.94-1.29,1.46-1.89.92-1.07,1.44-1.15,2.27.02,1.9,2.66,3.89,5.29,5.42,8.16,3.82,7.16,5.91,14.82,5.45,23-.21,3.74-1.05,7.36-3.65,10.31-1.67,1.9-3.81,2.8-6.26,3.19-4.72.76-9.29-.99-11.42-4.4-1.53-2.46-2.31-5.16-2.61-8.01-.12-1.11-.14-2.23-.21-3.41Zm11.97,14c1.95-3.69,1.7-38.2-.09-40.33-1.3,13.56-1.38,26.95.09,40.33Zm-1.75.29c-4.05-13.61-3.23-27.09.09-40.6-.3.52-.6,1.06-.81,1.63-2.88,7.67-3.92,15.61-3.52,23.76.18,3.69.74,7.32,2.08,10.78.59,1.53,1.43,2.96,2.15,4.43Zm4.16-39.8c2.98,13.23,3.57,26.35-.33,39.5.62-.96,1.23-1.94,1.69-2.98,1.94-4.47,2.54-9.21,2.66-14.03.17-6.73-.93-13.28-2.89-19.7-.29-.96-.74-1.87-1.12-2.8Z"/>
</svg>